<svg width="90" height="57" viewBox="0 0 90 57" fill="none" xmlns="http://www.w3.org/2000/svg">
<path d="M3.57628e-07 0.349995H2.55C6.05 7.95 10.3 14 15.3 18.5C20.4 23 26.5 26.3 33.6 28.4C26.5 30.5 20.4 33.8 15.3 38.3C10.3 42.8 6.05 48.85 2.55 56.45H3.57628e-07C3.5 48.85 7.4 42.85 11.7 38.45C16 33.95 21.15 30.6 27.15 28.4C21.15 26.1 16 22.75 11.7 18.35C7.4 13.95 3.5 7.95 3.57628e-07 0.349995ZM55.8 0.349995H58.35C61.85 7.95 66.1 14 71.1 18.5C76.2 23 82.3 26.3 89.4 28.4C82.3 30.5 76.2 33.8 71.1 38.3C66.1 42.8 61.85 48.85 58.35 56.45H55.8C60.1 47.25 62.25 37.9 62.25 28.4C62.25 18.9 60.1 9.55 55.8 0.349995ZM41.55 27.2H63.75V29.6H41.55V27.2ZM13.5 0.349995H16.05C19.55 7.95 23.8 14 28.8 18.5C33.9 23 40 26.3 47.1 28.4C40 30.5 33.9 33.8 28.8 38.3C23.8 42.8 19.55 48.85 16.05 56.45H13.5C17 48.85 20.9 42.85 25.2 38.45C29.5 33.95 34.65 30.6 40.65 28.4C34.65 26.1 29.5 22.75 25.2 18.35C20.9 13.95 17 7.95 13.5 0.349995Z" fill="white"/>
</svg>
