<svg width="32" height="32" viewBox="0 0 32 32" fill="none" xmlns="http://www.w3.org/2000/svg">
<g opacity="0.7">
<path d="M7.5 12V20C7.5 20.3978 7.34196 20.7794 7.06066 21.0607C6.77936 21.342 6.39782 21.5 6 21.5C5.60218 21.5 5.22064 21.342 4.93934 21.0607C4.65804 20.7794 4.5 20.3978 4.5 20V12C4.5 11.6022 4.65804 11.2206 4.93934 10.9393C5.22064 10.658 5.60218 10.5 6 10.5C6.39782 10.5 6.77936 10.658 7.06066 10.9393C7.34196 11.2206 7.5 11.6022 7.5 12ZM11 2.5C10.6022 2.5 10.2206 2.65804 9.93934 2.93934C9.65804 3.22064 9.5 3.60218 9.5 4V28C9.5 28.3978 9.65804 28.7794 9.93934 29.0607C10.2206 29.342 10.6022 29.5 11 29.5C11.3978 29.5 11.7794 29.342 12.0607 29.0607C12.342 28.7794 12.5 28.3978 12.5 28V4C12.5 3.60218 12.342 3.22064 12.0607 2.93934C11.7794 2.65804 11.3978 2.5 11 2.5ZM16 6.5C15.6022 6.5 15.2206 6.65804 14.9393 6.93934C14.658 7.22064 14.5 7.60218 14.5 8V24C14.5 24.3978 14.658 24.7794 14.9393 25.0607C15.2206 25.342 15.6022 25.5 16 25.5C16.3978 25.5 16.7794 25.342 17.0607 25.0607C17.342 24.7794 17.5 24.3978 17.5 24V8C17.5 7.60218 17.342 7.22064 17.0607 6.93934C16.7794 6.65804 16.3978 6.5 16 6.5ZM21 10.5C20.6022 10.5 20.2206 10.658 19.9393 10.9393C19.658 11.2206 19.5 11.6022 19.5 12V20C19.5 20.3978 19.658 20.7794 19.9393 21.0607C20.2206 21.342 20.6022 21.5 21 21.5C21.3978 21.5 21.7794 21.342 22.0607 21.0607C22.342 20.7794 22.5 20.3978 22.5 20V12C22.5 11.6022 22.342 11.2206 22.0607 10.9393C21.7794 10.658 21.3978 10.5 21 10.5ZM26 8.5C25.6022 8.5 25.2206 8.65804 24.9393 8.93934C24.658 9.22064 24.5 9.60218 24.5 10V22C24.5 22.3978 24.658 22.7794 24.9393 23.0607C25.2206 23.342 25.6022 23.5 26 23.5C26.3978 23.5 26.7794 23.342 27.0607 23.0607C27.342 22.7794 27.5 22.3978 27.5 22V10C27.5 9.60218 27.342 9.22064 27.0607 8.93934C26.7794 8.65804 26.3978 8.5 26 8.5Z" fill="white"/>
</g>
</svg>
